inDegrees=no
num_controls=7
num_derivatives=13
num_iterations=126
num_multipliers=7
num_parameters=0
num_slacks=7
num_states=26
objective=5.693272
objective_accelerations=0.645935
objective_balance=0.089940
objective_effort=0.505786
objective_height=4.389960
objective_ligament=0.061652
solver_duration=1400.940543
status=Solve_Succeeded
success=true
DataType=double
version=3
OpenSimVersion=4.4-2022-07-23-0e9fedc
endheader
time	/jointset/ground_pelvis/pelvis_tilt/value	/jointset/ground_pelvis/pelvis_tx/value	/jointset/ground_pelvis/pelvis_ty/value	/jointset/hip_l/hip_flexion_l/value	/jointset/hip_l/hip_adduction_l/value	/jointset/hip_l/hip_rotation_l/value	/jointset/back/lumbar_extension/value	/jointset/patellofemoral_l/patellar_flexion_l/value	/jointset/knee_l/knee_flexion_l/value	/jointset/knee_l/knee_adduction_l/value	/jointset/knee_l/knee_rotation_l/value	/jointset/ankle_l/ankle_angle_l/value	/jointset/subtalar_l/subtalar_angle_l/value	/jointset/ground_pelvis/pelvis_tilt/speed	/jointset/ground_pelvis/pelvis_tx/speed	/jointset/ground_pelvis/pelvis_ty/speed	/jointset/hip_l/hip_flexion_l/speed	/jointset/hip_l/hip_adduction_l/speed	/jointset/hip_l/hip_rotation_l/speed	/jointset/back/lumbar_extension/speed	/jointset/patellofemoral_l/patellar_flexion_l/speed	/jointset/knee_l/knee_flexion_l/speed	/jointset/knee_l/knee_adduction_l/speed	/jointset/knee_l/knee_rotation_l/speed	/jointset/ankle_l/ankle_angle_l/speed	/jointset/subtalar_l/subtalar_angle_l/speed	/forceset/tau_hip_flexion_l	/forceset/tau_hip_adduction_l	/forceset/tau_hip_rotation_l	/forceset/tau_knee_flexion_l	/forceset/tau_ankle_angle_l	/forceset/tau_subtalar_angle_l	/forceset/tau_lumbar_extension	lambda_cid13_p0	lambda_cid13_p1	lambda_cid13_p2	lambda_cid13_p3	lambda_cid13_p4	lambda_cid13_p5	lambda_cid14_p0	/jointset/ground_pelvis/pelvis_tilt/accel	/jointset/ground_pelvis/pelvis_tx/accel	/jointset/ground_pelvis/pelvis_ty/accel	/jointset/hip_l/hip_flexion_l/accel	/jointset/hip_l/hip_adduction_l/accel	/jointset/hip_l/hip_rotation_l/accel	/jointset/back/lumbar_extension/accel	/jointset/patellofemoral_l/patellar_flexion_l/accel	/jointset/knee_l/knee_flexion_l/accel	/jointset/knee_l/knee_adduction_l/accel	/jointset/knee_l/knee_rotation_l/accel	/jointset/ankle_l/ankle_angle_l/accel	/jointset/subtalar_l/subtalar_angle_l/accel	gamma_cid13_p0	gamma_cid13_p1	gamma_cid13_p2	gamma_cid13_p3	gamma_cid13_p4	gamma_cid13_p5	gamma_cid14_p0
1.5	-0.5178577366270081	-0.106418557652604	0.7506434744683211	1.355198567879697	-0.3115919828693075	-0.06712163024874689	-0.3532620745500092	0.642322861464324	0.6423228614643376	-0.1741984345115897	0.174355760566995	-0.0363984383729851	-0.06492630273549023	0.9235703797621094	0.3302469498126447	0.5213964226124347	-2.55209602361909	0.05269661865104789	-0.5504135740781256	0.5534249967558399	-1.617900925135593	-1.617900925135765	0.001997176185032986	-0.001564691971632658	-0.06201099845537001	0.05687810850032477	-0.2856696260460447	0.01904391212185899	-0.01809178244884101	-0.177862008061523	0.1758567525044635	0.04044931802453552	0.2462690221738312	17.06879154561691	-22.88441255112365	5.905862973493314	-8.511575959353564	-611.6295295035204	-55.5678678654472	-30.91606286885769	0.7277350953072256	0.8072625817571248	-0.2445387460758568	-1.747054421835273	0.5100087138371626	-0.2198446108162782	1.885024007674734	-1.018549493257796	-1.018549493257737	0.02177498190035398	-0.043314500375237	0.08855421823588026	0.513934778626243	1.925770585796074e-09	8.965619953022349e-07	-1.770192922096969e-07	1.60793464008902e-07	1.914002100859512e-07	-1.569034713968269e-07	1.534801270142441e-07
1.51	-0.5085860869803035	-0.1030759478846301	0.7558442261609885	1.32959253466116	-0.3110404968801887	-0.07263711648833374	-0.3476350629086085	0.626095218234974	0.6260952182349618	-0.1741787687236551	0.1743396195716546	-0.03701403844233001	-0.06433279843763344	0.9306311950366584	0.3382416383151364	0.518650256050082	-2.568766558473607	0.05760408603134017	-0.5526067134076657	0.5719153916521629	-1.627400921001936	-1.627400921002155	0.001932195245075381	-0.001668693353170058	-0.06107808283892672	0.06182837332362234	-0.2764606362401415	0.01832428075881179	-0.01803094828516518	-0.1770160596017085	0.1746231576736943	0.03964716366900262	0.2393681801932115	16.94586829118665	-22.63775912971552	6.007315366568977	-8.352359356024728	-606.688374116931	-55.87227037334109	-31.78225791347001	0.6760134377667787	0.7906019338714879	-0.305163247396947	-1.575428641004482	0.4815151557620809	-0.2073371771350121	1.821756248382731	-0.8817362247941646	-0.881736224801431	-0.02102441841057323	0.005380106176108396	0.1003035165559504	0.486281904759746	-4.74709053364403e-09	9.497555891419132e-07	-1.686392650140827e-07	1.694054135854575e-07	2.015125797628775e-07	-1.444301526629959e-07	1.563037247754663e-07
1.52	-0.4992476774420087	-0.09965438524175674	0.761014414660817	1.303830120969339	-0.3104398563361454	-0.07817219183778486	-0.3418250055146886	0.6097793727286438	0.6097793727286418	-0.1741598307023723	0.1743223031752027	-0.03761938069886701	-0.0636896495774274	0.9369223580807385	0.3460375247925299	0.5152837840446318	-2.583372118277908	0.06252752963707614	-0.5543313960616837	0.590034147259377	-1.635541380527139	-1.635541380527407	0.001851622846476591	-0.001799772205960726	-0.05995943589417473	0.06680702097006758	-0.2672516464341076	0.01760464939590283	-0.01797011412121681	-0.1761701111418724	0.1733895628429792	0.03884500931361289	0.2324673382126692	16.81421324554739	-22.39158133443226	6.111133108003388	-8.165947480047492	-601.8751891139411	-56.22625365234467	-32.62645911189369	0.5738046492130269	0.7675021767378413	-0.3685998346952948	-1.334059411791779	0.5132039589257532	-0.1261532757119379	1.810696149852479	-0.7466422250299125	-0.746642225029886	0.01865669017187417	-0.04872999462570103	0.1257004838981118	0.5196113432557481	-1.17650310416412e-08	1.001087716381796e-06	-1.600161369112544e-07	1.771862107478026e-07	2.117310678089148e-07	-1.306310540723932e-07	1.584971112093982e-07
1.53	-0.4898502013035592	-0.09615593264801202	0.7661478793178872	1.277931984788576	-0.3097899713986597	-0.08372233109095711	-0.3358358228637887	0.5933889713845084	0.5933889713844885	-0.1741417912715488	0.1743036769581339	-0.0382126158395642	-0.06299663859615888	0.942438772935007	0.3536111934630645	0.511308755411197	-2.595898037386559	0.0674482422040439	-0.5556191476407282	0.6077252529882858	-1.642303977193037	-1.642303977193151	0.001753558604907838	-0.001930094424749783	-0.05865658014757609	0.07179637350021308	-0.2579565483252024	0.01670628783866336	-0.01794587149378777	-0.1753244884873426	0.1722021533237469	0.03792292017607894	0.2254377312086939	16.69454641363681	-22.09860988508998	6.211140179826527	-7.965841635476953	-597.047799082143	-56.50882938105328	-33.44499245072803	0.5204551763027004	0.7460666946167449	-0.4269676525998273	-1.158282804453652	0.4811776280631975	-0.118316760458849	1.736748293159726	-0.6058638883064885	-0.6058638882835432	-0.02424849148902841	0.004226577790843296	0.1372327073096764	0.4886256666473335	-1.914961839998027e-08	1.050442035359395e-06	-1.511347140945111e-07	1.840839084700492e-07	2.220623066221326e-07	-1.154233143839706e-07	1.600208981080843e-07
1.54	-0.480401581962011	-0.09258298987108178	0.7712385910336381	1.251919304487924	-0.3090909447910112	-0.08928299399217622	-0.3296720430538481	0.576937984973498	0.5769379849735148	-0.1741247745851199	0.1742836295016044	-0.03879189150534008	-0.06225372839783772	0.9471509987000415	0.3609355614296316	0.5067331957807125	-2.606280942257289	0.07235586367022548	-0.5564361256780904	0.6249535790672109	-1.647658393896394	-1.647658393896354	0.001647073956655051	-0.002084020111703034	-0.05716754091020571	0.07678686438051129	-0.2486614502161979	0.01580792628152358	-0.01792162886594651	-0.1744788658328104	0.1710147438045608	0.03700083103864924	0.2184081242047713	16.56584197143095	-21.80578950617504	6.313151315758653	-7.733957906393002	-592.3502718532901	-56.84118220511696	-34.23427456418182	0.4129668313658622	0.7176420359447225	-0.4887060341051874	-0.9054565642074018	0.5105857387683735	-0.03199856737549484	1.718140219855324	-0.4650062325216416	-0.4650062325216306	0.01697260883485616	-0.0534506882583932	0.1629371820529653	0.5198390132863004	-2.66029439428661e-08	1.095855329948174e-06	-1.42656557860028e-07	1.898682135742087e-07	2.321352043630073e-07	-9.933416515149162e-08	1.608502379651309e-07
1.55	-0.4709098701630116	-0.08893813334752157	0.7762805947035131	1.22581353473039	-0.3083429674496374	-0.09484958858556247	-0.3233384876762872	0.5604405273009359	0.5604405273009498	-0.1741088881043392	0.1742620120670264	-0.03935537067891631	-0.0614609668467747	0.9510517013554345	0.3679848410184097	0.5015712730242069	-2.614502716356676	0.07723263807352632	-0.5568029932311533	0.6416646985400372	-1.651591062964966	-1.651591062964838	0.001526249160421692	-0.002245089358122853	-0.05549890771046605	0.08176094889830894	-0.2393305935863578	0.01475662591657221	-0.01793773645948782	-0.1736307406457132	0.1698746894852917	0.03594605774951724	0.2112904126159012	16.44541252444053	-21.45995492291102	6.410321953066975	-7.48248278708391	-587.6951059337913	-57.08780753260097	-34.99065779277238	0.3576801387665288	0.6909749559543374	-0.544325703537363	-0.7249830298006287	0.4750177528414737	-0.02688493163428669	1.63367812385922	-0.3211177754676044	-0.3211177754545795	-0.02699724070666275	0.001826476304066317	0.173236101914875	0.4853527677283898	-3.413546782881669e-08	1.136727879045489e-06	-1.346430348616272e-07	1.943696967488332e-07	2.419104482596607e-07	-8.222947883564343e-08	1.608794540568103e-07
1.56	-0.4613833397062239	-0.08522430322095274	0.7812681010844017	1.199636658192473	-0.3075464634718842	-0.1004174226709221	-0.3168406050414235	0.5439109988313887	0.5439109988314246	-0.1740942873148861	0.1742386362438336	-0.03990128157789673	-0.06061863253119296	0.9541147302564466	0.3747302820313527	0.4958337379834358	-2.620502298335928	0.08206119094602249	-0.5566840240787035	0.6578190305274169	-1.654072553291233	-1.654072553291017	0.001389935690050737	-0.002435697839042184	-0.05365388599149404	0.08670141728419947	-0.2299997369564248	0.01370532555171927	-0.01795384405293699	-0.1727826154585542	0.1687346351660794	0.03489128446049056	0.2041727010270696	16.31565587955114	-21.11387358867665	6.509036762274841	-7.195248380973865	-583.1716543116966	-57.38360597274044	-35.71065148827771	0.2454320804894557	0.6568743207781006	-0.6038284909582478	-0.4610181401799696	0.5009414326073363	0.06516877372704726	1.606782722765665	-0.1747704840607465	-0.1747704840607425	0.01387487400715406	-0.05935853515818222	0.1982148858999427	0.5131157869049026	-3.992290151350127e-08	1.171469752733309e-06	-1.311190353771858e-07	1.956756729491807e-07	2.539537738706735e-07	-6.537910980698574e-08	1.60740728544707e-07
1.57	-0.4518304000586988	-0.08144462703187558	0.7861954123786359	1.173410947414585	-0.3067019550409284	-0.1059817586590474	-0.3101841704481728	0.5273639284621698	0.5273639284621888	-0.1740811143667473	0.1742132807767643	-0.04042789740854633	-0.05972710318691405	0.9563271158850454	0.3811446821370547	0.4895368928691078	-2.624253005930202	0.08682881312397193	-0.5561066371764741	0.6733570035304297	-1.655088491401721	-1.65508849140155	0.001244882572828482	-0.002636352813816772	-0.05164065107784062	0.0915954858385942	-0.2206249976749503	0.01246696360619812	-0.01802383182908113	-0.1720010136053969	0.167744040834429	0.03371553925174438	0.1969659425022157	16.22447018544695	-20.72461585842904	6.603847320073292	-6.911370684612272	-578.736138178247	-57.61761143106525	-36.39077183947542	0.1872336676121404	0.6247200973975543	-0.6563012409432097	-0.2740607049677566	0.462750087537014	0.06568119629713445	1.510671898839816	-0.0270831407579907	-0.02708314076520127	-0.0284452442188453	-0.0004540836041836755	0.2071730306283529	0.4760337405697503	-4.352897244660337e-08	1.198548282159261e-06	-1.332069402851936e-07	1.929872654316822e-07	2.688322016246355e-07	-4.884663738731617e-08	1.603920760278753e-07
